<svg xmlns="http://www.w3.org/2000/svg" xmlns:xlink="http://www.w3.org/1999/xlink" viewBox="0 0 100 125" version="1.1" x="0px" y="0px"><title>Shape</title><desc>Created with Sketch.</desc><g stroke="none" stroke-width="1" fill="none" fill-rule="evenodd"><path d="M62.7472855,22.7917003 C62.7369893,22.8661533 62.7293631,22.9412744 62.7244831,23.0169407 L62.3226351,29.2478179 C56.7874299,23.837601 49.2147159,20.5031407 40.8631971,20.5031407 C23.9063847,20.5031407 10.1601722,34.2493531 10.1601722,51.2061655 C10.1601722,68.1629779 23.9063847,81.9091903 40.8631971,81.9091903 C57.8200094,81.9091903 71.5662219,68.1629779 71.5662219,51.2061655 C71.5662219,48.6354322 71.2502789,46.1384913 70.6551042,43.752054 L76.3102884,46.5482457 C76.3512513,46.5684997 76.3925414,46.5877907 76.434127,46.60612 C76.6269731,48.1122501 76.7263941,49.6475973 76.7263941,51.2061655 C76.7263941,71.0128623 60.6698939,87.0693626 40.8631971,87.0693626 C21.0565002,87.0693626 5,71.0128623 5,51.2061655 C5,31.3994687 21.0565002,15.3429684 40.8631971,15.3429684 C49.1019942,15.3429684 56.6919215,18.1211102 62.7472867,22.7917013 L62.7472855,22.7917003 Z M58.1912861,35.3632663 L55.435212,36.9544864 C51.734793,33.1714174 46.5731895,30.8234852 40.8631971,30.8234852 C29.6061535,30.8234852 20.4805167,39.949122 20.4805167,51.2061655 C20.4805167,62.463209 29.6061535,71.5888458 40.8631971,71.5888458 C52.1202406,71.5888458 61.2458774,62.463209 61.2458774,51.2061655 C61.2458774,49.3767204 61.0048573,47.6035685 60.5528381,45.9167309 L63.3163381,44.3212234 C63.9831632,46.4985245 64.3419807,48.8104418 64.3419807,51.2061655 C64.3419807,64.1731397 53.8301712,74.6849492 40.8631971,74.6849492 C27.8962229,74.6849492 17.3844134,64.1731397 17.3844134,51.2061655 C17.3844134,38.2391913 27.8962229,27.7273818 40.8631971,27.7273818 C47.7245061,27.7273818 53.8984028,30.6705437 58.1912861,35.3632663 L58.1912861,35.3632663 Z M48.6139319,40.8927543 L42.1544949,44.622112 C41.7366338,44.540632 41.3049009,44.4979416 40.8631971,44.4979416 C37.1583473,44.4979416 34.1549732,47.5013157 34.1549732,51.2061655 C34.1549732,54.9110153 37.1583473,57.9143894 40.8631971,57.9143894 C43.6926735,57.9143894 46.112999,56.1626061 47.0987752,53.6844377 L53.6958456,49.8756174 C53.7406637,50.31303 53.7636277,50.756916 53.7636277,51.2061655 C53.7636277,58.3308766 47.9879081,64.1065961 40.8631971,64.1065961 C33.738486,64.1065961 27.9627665,58.3308766 27.9627665,51.2061655 C27.9627665,44.0814544 33.738486,38.3057349 40.8631971,38.3057349 C43.7720629,38.3057349 46.4560637,39.268497 48.6139319,40.8927537 L48.6139319,40.8927543 Z M67.1388314,39.1352161 L43.0815748,53.0246797 C41.8475386,53.7371509 40.2695827,53.3143388 39.5571116,52.0803027 C38.8446405,50.8462665 39.2674525,49.2683106 40.5014887,48.5558395 L64.5587453,34.6663759 L65.2993389,23.1830618 C65.310443,23.0108875 65.4068606,22.8556543 65.5562777,22.7693883 L82.3574632,13.0692194 C82.6042704,12.9267251 82.9198616,13.0112875 83.0623559,13.2580948 C83.1132932,13.3463208 83.1369758,13.4476504 83.1304192,13.5493139 L82.2345359,27.4404802 L94.7125805,33.6102057 C94.9680469,33.7365202 95.0727452,34.0460147 94.9464308,34.3014811 C94.9012772,34.3928025 94.8301027,34.4687152 94.7418766,34.5196525 L77.9406911,44.2198215 C77.791274,44.3060875 77.6086293,44.311971 77.4539699,44.2355003 L67.1388314,39.1352161 Z M77.5507777,39.6781752 L86.8327346,34.3192349 L77.9378339,29.9211823 L78.576459,20.0189461 L69.2945021,25.3778864 L68.655877,35.2801226 L77.5507777,39.6781752 Z" fill="#000000" fill-rule="nonzero"/></g><text x="0" y="115" fill="#000000" font-size="5px" font-weight="bold" font-family="'Helvetica Neue', Helvetica, Arial-Unicode, Arial, Sans-serif">Created by Tom Ingebretsen</text><text x="0" y="120" fill="#000000" font-size="5px" font-weight="bold" font-family="'Helvetica Neue', Helvetica, Arial-Unicode, Arial, Sans-serif">from the Noun Project</text></svg>