<svg xmlns="http://www.w3.org/2000/svg" viewBox="0 0 160.84 42.65"><defs><style>.cls-1{fill:#231f20;}</style></defs><title>logo-collegial-horizontal</title><g id="Layer_2" data-name="Layer 2"><g id="Calque_1" data-name="Calque 1"><path class="cls-1" d="M30.41,16A15.2,15.2,0,1,0,0,16H0V42.22H30.41V16h0ZM13.09,25.59h0A9.46,9.46,0,0,1,5,35V15.84H5a9.46,9.46,0,0,1,8.12-9.46Zm4.5,0h0V6.38a9.46,9.46,0,0,1,8.12,9.46h0V35A9.46,9.46,0,0,1,17.59,25.59Z"/><path class="cls-1" d="M50.94,17.29a7.73,7.73,0,0,1-1.87-.54V14.08a9.79,9.79,0,0,0,1.92.62,9.31,9.31,0,0,0,2,.22,5.05,5.05,0,0,0,1.8-.22.9.9,0,0,0,.53-.93A1.07,1.07,0,0,0,55,13a2.2,2.2,0,0,0-.83-.49q-.56-.21-1.83-.58a8.32,8.32,0,0,1-2.06-.87A2.9,2.9,0,0,1,49.21,9.9a3.81,3.81,0,0,1-.33-1.69,3.21,3.21,0,0,1,1.3-2.77A6.41,6.41,0,0,1,54,4.5a14.09,14.09,0,0,1,2.08.16A10.13,10.13,0,0,1,57.8,5v2.7a9,9,0,0,0-3.34-.65,5.28,5.28,0,0,0-1.78.23.85.85,0,0,0-.59.87.91.91,0,0,0,.23.65,1.94,1.94,0,0,0,.75.43q.52.19,1.63.48a7.88,7.88,0,0,1,2.34,1A3.13,3.13,0,0,1,58.2,12a4.26,4.26,0,0,1,.32,1.73,3.21,3.21,0,0,1-1.33,2.72,6.46,6.46,0,0,1-3.91,1,13.84,13.84,0,0,1-2.34-.19"/><path class="cls-1" d="M66.85,0h2.58l-1.8,3.83H65.21ZM62.08,4.69h9.29V7.12H65.23V9.76h5.42v2.46H65.23v2.64h6.14v2.42H62.08Z"/><polygon class="cls-1" points="74.83 4.69 77.93 4.69 81.35 11.67 84.76 4.69 87.84 4.69 87.84 17.28 84.7 17.28 84.7 10.05 82.22 15.13 80.47 15.13 77.97 10.05 77.97 17.28 74.83 17.28 74.83 4.69"/><rect class="cls-1" x="91.79" y="4.69" width="3.15" height="12.59"/><polygon class="cls-1" points="98.89 4.69 101.59 4.69 106.94 12.22 106.94 4.69 110.11 4.69 110.11 17.28 107.39 17.28 102.04 9.78 102.04 17.28 98.89 17.28 98.89 4.69"/><path class="cls-1" d="M121.84,12.1l-1.68-4.38L118.5,12.1Zm-3.36-7.41h3.4l4.81,12.59h-3.28l-1.13-2.85h-4.2L117,17.28h-3.28Z"/><rect class="cls-1" x="130.25" y="4.69" width="3.15" height="12.59"/><path class="cls-1" d="M142.82,10.87a2.06,2.06,0,0,0,1.45-.47A1.79,1.79,0,0,0,144.77,9q0-1.9-1.82-1.9h-2.46v3.75Zm-5.47-6.18h6.29a4.28,4.28,0,0,1,3.26,1.14A4.43,4.43,0,0,1,148,9a3.94,3.94,0,0,1-.64,2.23,3.82,3.82,0,0,1-1.77,1.43,2.2,2.2,0,0,1,.42.47,5.51,5.51,0,0,1,.38.74l1.49,3.4h-3.28l-1.41-3.21a1.26,1.26,0,0,0-.45-.61,1.45,1.45,0,0,0-.78-.18h-1.45v4h-3.15Z"/><polygon class="cls-1" points="151.54 4.69 160.82 4.69 160.82 7.12 154.69 7.12 154.69 9.76 160.1 9.76 160.1 12.22 154.69 12.22 154.69 14.86 160.82 14.86 160.82 17.28 151.54 17.28 151.54 4.69"/><path class="cls-1" d="M52.36,30.62a3,3,0,0,0,1.29-.24,1.56,1.56,0,0,0,.74-.86,4.68,4.68,0,0,0,.26-1.74,5.11,5.11,0,0,0-.23-1.74,1.44,1.44,0,0,0-.72-.84A3.21,3.21,0,0,0,52.36,25H50.84v5.63Zm-3.3-7.11h3.55a3.8,3.8,0,0,1,2.9,1,4.68,4.68,0,0,1,.95,3.27A4.55,4.55,0,0,1,55.51,31a3.77,3.77,0,0,1-2.9,1H49.06Z"/><polygon class="cls-1" points="58.75 23.51 64.83 23.51 64.83 24.89 60.52 24.89 60.52 27.06 64.34 27.06 64.34 28.43 60.52 28.43 60.52 30.62 64.83 30.62 64.83 31.99 58.75 31.99 58.75 23.51"/><path class="cls-1" d="M70.77,31.66V30.09a7.89,7.89,0,0,0,1.26.38,6.18,6.18,0,0,0,1.3.14,3.66,3.66,0,0,0,1.39-.18.75.75,0,0,0,.4-.76.92.92,0,0,0-.18-.61,1.45,1.45,0,0,0-.61-.39q-.42-.17-1.32-.41a4.19,4.19,0,0,1-1.87-.92A2.37,2.37,0,0,1,71.46,24,4.15,4.15,0,0,1,74,23.38a9.51,9.51,0,0,1,1.4.1,5.44,5.44,0,0,1,1.09.26V25.3a6.33,6.33,0,0,0-2.25-.41,3.44,3.44,0,0,0-1.34.2.72.72,0,0,0-.44.72.8.8,0,0,0,.16.53,1.36,1.36,0,0,0,.55.35,11.45,11.45,0,0,0,1.2.36,4.24,4.24,0,0,1,2,1,2.3,2.3,0,0,1,.57,1.6,2.12,2.12,0,0,1-.87,1.8,4.25,4.25,0,0,1-2.57.65,6.84,6.84,0,0,1-2.74-.46"/><polygon class="cls-1" points="79.23 23.51 81.01 23.51 81.01 27.06 84.71 27.06 84.71 23.51 86.48 23.51 86.48 31.99 84.71 31.99 84.71 28.43 81.01 28.43 81.01 31.99 79.23 31.99 79.23 23.51"/><polygon class="cls-1" points="89.04 23.51 95.12 23.51 95.12 24.89 90.82 24.89 90.82 27.06 94.63 27.06 94.63 28.43 90.82 28.43 90.82 30.62 95.12 30.62 95.12 31.99 89.04 31.99 89.04 23.51"/><path class="cls-1" d="M101,27.71a1.67,1.67,0,0,0,1.11-.32,1.28,1.28,0,0,0,.38-1,1.39,1.39,0,0,0-.34-1,1.45,1.45,0,0,0-1-.33H99.19v2.73Zm-3.61-4.2h4.07a2.78,2.78,0,0,1,2.13.75,2.94,2.94,0,0,1,.7,2.09,2.38,2.38,0,0,1-1.69,2.37,1.79,1.79,0,0,1,.32.36,3.51,3.51,0,0,1,.27.53l1,2.37H102.4l-1-2.28a.72.72,0,0,0-.82-.53h-1.4V32H97.41Z"/><path class="cls-1" d="M110.63,30.68a1.45,1.45,0,0,0,1-.28,1.27,1.27,0,0,0,.31-1,1,1,0,0,0-.32-.85,1.73,1.73,0,0,0-1.1-.27h-2.13v2.37ZM110.56,27q1.2,0,1.2-1.08a1.1,1.1,0,0,0-.3-.85,1.54,1.54,0,0,0-1-.27h-2.05V27Zm-4-3.52h4.29a2.68,2.68,0,0,1,1.9.59,2.21,2.21,0,0,1,.63,1.7,2.3,2.3,0,0,1-.26,1.13,1.76,1.76,0,0,1-.72.72,1.84,1.84,0,0,1,1,.64,2,2,0,0,1,.33,1.23,2.37,2.37,0,0,1-.69,1.85,2.88,2.88,0,0,1-2,.63H106.6Z"/><path class="cls-1" d="M119.63,27.71a1.67,1.67,0,0,0,1.11-.32,1.28,1.28,0,0,0,.38-1,1.39,1.39,0,0,0-.34-1,1.45,1.45,0,0,0-1-.33H117.8v2.73ZM116,23.51h4.07a2.78,2.78,0,0,1,2.13.75,2.94,2.94,0,0,1,.7,2.09,2.38,2.38,0,0,1-1.69,2.37,1.79,1.79,0,0,1,.32.36,3.53,3.53,0,0,1,.27.53l1,2.37H121l-1-2.28a.72.72,0,0,0-.82-.53h-1.4V32H116Z"/><path class="cls-1" d="M130.63,29.91a3.32,3.32,0,0,0,.57-2.13,3.52,3.52,0,0,0-.55-2.23,2.67,2.67,0,0,0-3.53,0,3.52,3.52,0,0,0-.55,2.23,3.32,3.32,0,0,0,.57,2.13,2.56,2.56,0,0,0,3.5,0m-5.87-2.13a4.7,4.7,0,0,1,1-3.35,5.06,5.06,0,0,1,6.2,0,4.7,4.7,0,0,1,1,3.35q0,4.33-4.12,4.33t-4.12-4.33"/><path class="cls-1" d="M140.56,29.91a3.32,3.32,0,0,0,.57-2.13,3.51,3.51,0,0,0-.55-2.23,2.67,2.67,0,0,0-3.53,0,3.52,3.52,0,0,0-.55,2.23,3.32,3.32,0,0,0,.57,2.13,2.56,2.56,0,0,0,3.5,0m-5.87-2.13a4.7,4.7,0,0,1,1-3.35,5.06,5.06,0,0,1,6.2,0,4.7,4.7,0,0,1,1,3.35q0,4.33-4.12,4.33t-4.12-4.33"/><polygon class="cls-1" points="145.22 23.51 147 23.51 147 27.1 150.27 23.51 152.31 23.51 149.24 26.95 152.47 31.99 150.57 31.99 148.13 28.08 147 29.3 147 31.99 145.22 31.99 145.22 23.51"/><polygon class="cls-1" points="154.76 23.51 160.84 23.51 160.84 24.89 156.53 24.89 156.53 27.06 160.35 27.06 160.35 28.43 156.53 28.43 156.53 30.62 160.84 30.62 160.84 31.99 154.76 31.99 154.76 23.51"/><rect class="cls-1" x="114.86" y="37.2" width="0.24" height="5.44"/><path class="cls-1" d="M72,41.42a3.57,3.57,0,0,1-1.27.22,1.54,1.54,0,0,1-1.17-.41A1.71,1.71,0,0,1,69.19,40a3.57,3.57,0,0,1,0-.4h0a2.08,2.08,0,0,1,.15-.59l.06-.13a1.24,1.24,0,0,1,.12-.19,1.45,1.45,0,0,1,1.18-.43,3.52,3.52,0,0,1,1.28.23h0v-.7a0,0,0,0,0,0,0,4.07,4.07,0,0,0-1.36-.22,2.22,2.22,0,0,0-1.74.65A2.65,2.65,0,0,0,68.36,40a2.35,2.35,0,0,0,.6,1.7,2.3,2.3,0,0,0,1.72.62A4.53,4.53,0,0,0,72,42.15a0,0,0,0,0,0,0v-.7Z"/><path class="cls-1" d="M75.44,37.56a2.18,2.18,0,0,0-1.66.58A2.62,2.62,0,0,0,73.24,40a2.56,2.56,0,0,0,.54,1.8,2.64,2.64,0,0,0,3.31,0,2.56,2.56,0,0,0,.54-1.8,2.62,2.62,0,0,0-.54-1.83A2.18,2.18,0,0,0,75.44,37.56ZM76.81,40a2,2,0,0,1-.33,1.28,1.57,1.57,0,0,1-2.08,0A2,2,0,0,1,74.07,40a2,2,0,0,1,.33-1.31,1.61,1.61,0,0,1,2.08,0A2.06,2.06,0,0,1,76.81,40Z"/><path class="cls-1" d="M80.12,41.62v-4a0,0,0,0,0,0,0h-.78a0,0,0,0,0,0,0v4.59a0,0,0,0,0,0,0h3.13a0,0,0,0,0,0,0v-.6a0,0,0,0,0,0,0Z"/><path class="cls-1" d="M84.81,41.62v-4a0,0,0,0,0,0,0H84a0,0,0,0,0,0,0v4.59a0,0,0,0,0,0,0h3.13a0,0,0,0,0,0,0v-.6a0,0,0,0,0,0,0Z"/><path class="cls-1" d="M89.78,37.37h.64l.6-1.26a0,0,0,0,0,0,0h-.71l0,0-.53,1.26a0,0,0,0,0,0,0Z"/><path class="cls-1" d="M88.59,37.63a0,0,0,0,0,0,0v4.59a0,0,0,0,0,0,0h3.2a0,0,0,0,0,0,0v-.6a0,0,0,0,0,0,0h-2.4V40.27h2.13a0,0,0,0,0,0,0v-.6a0,0,0,0,0,0,0H89.39V38.29h2.4a0,0,0,0,0,0,0v-.61a0,0,0,0,0,0,0Z"/><path class="cls-1" d="M95.46,39.7a0,0,0,0,0,0,0v.51a0,0,0,0,0,0,0h1.12V41.5a2.87,2.87,0,0,1-1,.14c-1,0-1.49-.52-1.49-1.59a2.07,2.07,0,0,1,.36-1.33,1.47,1.47,0,0,1,1.2-.44,3.79,3.79,0,0,1,1.29.21h0v-.69a0,0,0,0,0,0,0,4.19,4.19,0,0,0-1.37-.21,2.22,2.22,0,0,0-1.74.66A2.66,2.66,0,0,0,93.29,40a2.33,2.33,0,0,0,.59,1.69,2.28,2.28,0,0,0,1.71.61,4.19,4.19,0,0,0,1-.11,2.37,2.37,0,0,0,.68-.27V39.73a0,0,0,0,0,0,0Z"/><path class="cls-1" d="M99,37.63h.78a0,0,0,0,1,0,0v4.59a0,0,0,0,1,0,0H99a0,0,0,0,1,0,0V37.65A0,0,0,0,1,99,37.63Z"/><path class="cls-1" d="M104.08,37.63h-.87l0,0-1.75,4.59a0,0,0,0,0,0,0h.83l0,0,.45-1.17h1.81l.45,1.17,0,0h.82a0,0,0,0,0,0,0l-1.74-4.59Zm.32,2.81h-1.52l.76-2Z"/><path class="cls-1" d="M110.65,41.62h-2.33v-4a0,0,0,0,0,0,0h-.78a0,0,0,0,0,0,0v4.59a0,0,0,0,0,0,0h3.13a0,0,0,0,0,0,0v-.6A0,0,0,0,0,110.65,41.62Z"/><path class="cls-1" d="M121.43,37.63h-2a0,0,0,0,0,0,0v4.59a0,0,0,0,0,0,0h.78a0,0,0,0,0,0,0V40.72h1.21a1.6,1.6,0,0,0,1.16-.42,1.49,1.49,0,0,0,.43-1.12,1.61,1.61,0,0,0-.4-1.13A1.52,1.52,0,0,0,121.43,37.63Zm.74,1.56a.86.86,0,0,1-.23.64.92.92,0,0,1-.67.23h-1.07V38.29h1.11a.84.84,0,0,1,.65.23A.94.94,0,0,1,122.16,39.19Z"/><path class="cls-1" d="M128.14,39.12a1.54,1.54,0,0,0-.37-1.1,1.49,1.49,0,0,0-1.13-.39h-2.11a0,0,0,0,0,0,0v4.59a0,0,0,0,0,0,0h.78a0,0,0,0,0,0,0v-1.6h.84a.66.66,0,0,1,.35.07.57.57,0,0,1,.19.26l.56,1.28h.84a0,0,0,0,0,0,0l-.58-1.33a1.57,1.57,0,0,0-.15-.3.75.75,0,0,0-.16-.17,1.31,1.31,0,0,0,.66-.47A1.41,1.41,0,0,0,128.14,39.12Zm-.83,0c0,.57-.29.84-.88.84h-1.1V38.29h1.17C127.05,38.29,127.31,38.56,127.31,39.12Z"/><path class="cls-1" d="M129.83,37.63h.78a0,0,0,0,1,0,0v4.59a0,0,0,0,1,0,0h-.78a0,0,0,0,1,0,0V37.65A0,0,0,0,1,129.83,37.63Z"/><path class="cls-1" d="M136.67,37.63h-.8l0,0-1.35,3.69-1.35-3.69,0,0h-.83a0,0,0,0,0,0,0L134,42.25l0,0h.87l0,0,1.74-4.59a0,0,0,0,0,0,0Z"/><path class="cls-1" d="M139.57,37.37h.64l.6-1.26a0,0,0,0,0,0,0h-.71l0,0-.53,1.26a0,0,0,0,0,0,0Z"/><path class="cls-1" d="M141.58,38.29a0,0,0,0,0,0,0v-.61a0,0,0,0,0,0,0h-3.2a0,0,0,0,0,0,0v4.59a0,0,0,0,0,0,0h3.2a0,0,0,0,0,0,0v-.6a0,0,0,0,0,0,0h-2.4V40.27h2.13a0,0,0,0,0,0,0v-.6a0,0,0,0,0,0,0h-2.13V38.29Z"/></g></g></svg>