<svg xmlns="http://www.w3.org/2000/svg" xmlns:xlink="http://www.w3.org/1999/xlink" version="1.1" x="0px" y="0px" viewBox="0 0 70 87.5" enable-background="new 0 0 70 70" xml:space="preserve"><g><path d="M43.4,39.3c0.2,1.2,0.4,2.4,0.8,3.6c0.7,2.2-1.3,4.2-3,3.9c-1,5.4-1.6,12.2-0.5,17.9c0.3,1.4,1.5,2.4,2.9,2.4   c0.2,0,0.4,0,0.6-0.1c1.6-0.3,2.7-1.9,2.4-3.5c-1.2-6.3,0.2-14.5,1.4-19.6c0,0,0,0,0,0c-0.1-1.3-0.1-2.5-0.1-3.6   C46.3,40.1,44.8,40.6,43.4,39.3z"/><path d="M57.3,37.2c-0.1,1.1-0.7,2.1-1.5,2.7c0.1,1.2,0.1,3.3,0.2,5.8c0.3,0,0.6-0.1,1-0.2c1.6,0,3-1.1,3.2-1.5   c0,0,0.1-4.1-1.1-7.3L57.3,37.2z"/><path d="M15,32.1L15,32.1c0,0.1-0.2,5.3-0.2,5c0,0,0,0,0,0c0.2-0.3,0.4-0.6,0.5-0.9c0,0,0,0,0,0c0.2-0.3,0.4-0.7,0.5-1v0   c0.5-1,1-2.4,1.4-3.8C17.1,31.5,14.8,32.2,15,32.1z"/><path d="M56.2,37.6C56,37.6,54.9,38,55,37.9c-0.1,0-0.1,0.1-0.3,0.1c0,0,0.6,0.6,0.8,0.8c0,0,0,0,0,0c0.1-0.1,0.1-0.1,0.2-0.2   c0,0,0,0,0,0C56,38.3,56.1,38,56.2,37.6L56.2,37.6z"/><circle cx="22.3" cy="7.3" r="5.8"/><circle cx="51.4" cy="8.6" r="5.8"/><path d="M36.5,38.6l-3-1.2c3.7-10,0.8-17.8-3.8-21.4c-0.1-0.1-0.3-0.2-0.5-0.2v0c-0.3-0.1-4.2-2.3-10.6-0.9c0,0.1,1,5.2,0.6,11.3   c1.6,1.4,1.2,4-0.7,4.9c-0.5,2.3-1.3,4.4-2.5,6.3c-0.1,0.3-0.3,0.5-0.5,0.8c-0.1,0.2-0.3,0.4-0.4,0.5c0,0,0,0,0,0.1c0,0,0,0,0,0   c0.1,0.6,0.4,1.1,0.8,1.5c0.2,0.2,0.4,0.4,0.6,0.5v0c0,0.2,0,0.4,0,0.5c0,0.2,0,0.4,0,0.5c-0.5-0.2-0.9-0.5-1.3-0.9   c-0.8-0.8-1.2-1.8-1.1-2.9l0.2-5.5c-0.1,0,0,0-0.3-0.1L12.3,33c-0.2,0.3-4.7,6.2-4.6,8.5c0,0,0.6,7,8.2,4.1c-0.1,0.7-0.1,1.3-0.2,2   c-0.5,6.2-1,12-0.6,17.8c0.1,1.6,1.4,2.8,3,2.8h0.2c1.7-0.1,2.9-1.6,2.8-3.2c-0.5-7.7,0.7-16.7,1.1-23.7h0.6   c0.5,7.8,1.3,16.1,0.7,23.7c-0.1,1.6,1.1,3.1,2.8,3.2h0.2c1.6,0,2.9-1.2,3-2.8c0.4-6.5,0-13.1-0.5-20.1c0-0.2,0-0.4,0-0.5l4.9,1.5   c0.1,0,0.1,0,0.2,0c0.3,0,0.5-0.2,0.6-0.4l2.2-6.4C36.9,39,36.8,38.7,36.5,38.6z M25,42.9c0,0,0.6-1.7,0.6-1.7v0   c0-0.1,2.1-5.5,2-5.4c0,0,0-0.1,0.1-0.1c0,0,0,0,0,0c0.1,0,1.8,0.7,1.7,0.7c-0.6,1.6-1.5,3.4-1.9,4.2v0c-0.1,0.4-0.5,0.8-0.2,1.6   c0.2,0.8,0.9,1.3,1.6,1.4c0.1,0,0.2,0,0.4,0c0.7,0,1.4-0.4,1.8-1c0.9-1.6,1.6-3.2,2.2-4.7l3,1.2c0,0,0.1,0.1,0.1,0.1l-2.2,6.4   c0,0.1-0.1,0.1-0.1,0.1L29,44.1C24.9,42.8,25.1,43,25,42.9z M30.7,32.7c-0.1,0.5-0.3,1.1-0.4,1.7v0c-0.1,0.4-0.3,0.9-0.5,1.4   l-0.4-14.2C30.9,24.2,31.7,28,30.7,32.7z"/><path d="M9.2,32.7c0.6,0,5.8-1.7,5.7-1.7v0h0c0.1,0,2.6-0.8,2.5-0.8v0c0.1,0,0.7-0.1,1.2-0.7c1.2-1.5-0.2-3.7-2.2-3.1   c-0.1,0-1.5,0.5-1.4,0.4h0c-0.1,0-1.9,0.6-1.8,0.6c0.1-0.1,0.9-1.6,0.8-1.5v0l0.5-1v0l0.5-1l-0.1,1.9h0c0.6-0.1,1.7-0.8,3-0.3   c0.2-3.3,0-7.2-0.4-9.5c0,0,0,0,0,0c0,0,0,0,0,0v0c0,0,0,0,0,0c0-0.4-0.1-0.8-0.1-0.9c-1.2,0.3-2,0.6-2.1,0.7v0   c-0.2,0.1-0.4,0.2-0.5,0.4v0c-0.2,0.2-0.3,0.5-0.5,0.8v0L8.5,27.8l-1.1,2C6.8,31.1,7.7,32.7,9.2,32.7z"/><path d="M55.7,39c0,0.1,0,0.2,0,0.3c0,0,0.1-0.1,0.1-0.1C55.8,39.2,55.7,39,55.7,39z"/><path d="M61.9,30.3L61.9,30.3L57.7,19v0c-0.1-0.3-0.2-0.6-0.5-0.9v0c-0.1-0.2-0.3-0.3-0.5-0.4v-0.1c-0.4-0.1-3.8-2.3-9.9-1.1v0h0   c0.1,0.9,1.4,10.2,4.8,16.9c0.4-0.6,0.9-1,1.6-1.2c0.1,0,2.8-0.8,2.6-0.8v0l0.5-0.1h0c0-1.7,0.1-4.1,0.1-3.9l0.5,1.3v0   c0,0.1,1.3,3.4,1.2,3.2c-0.1,0-1.9,0.6-1.8,0.5h0c-0.1,0-3,0.9-2.8,0.8c-0.7,0.2-1.2,0.7-1.4,1.3c0,0,0,0,0,0   c-0.1,0.4-0.1,0.7,0,1.1c0.7,2.4,3.4,1,3.6,1c0.1,0,5.6-1.7,5.5-1.6c0.5-0.2,1-0.5,1.2-1C63.1,32.8,62.4,32,61.9,30.3z"/><path d="M54.4,39.5c0,0,0.2-0.1,0.3-0.1c0,0,0,0,0,0c0,0,0,0,0,0c-0.1-0.1-0.7-0.7-1.3-1.4c-1.5-0.4-2.4-1.9-2.2-3.3   c-3.7-6.6-5.3-17.2-5.3-18c0,0,0,0,0,0c-1,0.3-0.9,0.3-1.1,0.3l0,0.1c-0.5,0.3-0.7,0.7-1.1,1.3v0c-4.7,7.2-7.1,17.1-4.1,26.1   c0.8,2.5,4.6,1.3,3.8-1.2c-0.3-0.9-0.5-1.8-0.7-2.7c-0.8-4.1-0.2-9,0.7-11.7c0,0,0,0,0,0c0.2-0.7,0.4-1.4,0.7-2   c0,0.2-0.4,5.6-0.4,5.4c0,0,0,0,0,0c-0.2,4-0.5,4.4-0.2,5.4v0c0.4,0.9,1.3,1.6,2.3,1.7c0.1,0,3.6,0.2,3.4,0.2c0,0,0,0,0,0   c-0.2,0.4-0.3,0.9-0.3,1.2c-0.1,0.1,0.9,18,0,24.4c-0.2,1.6,0.9,3.2,2.5,3.4c0.1,0,0.3,0,0.4,0c1.5,0,2.8-1.1,3-2.6   c0.7-4.6,0.4-14.6,0.2-20.6C54.8,41.5,54.8,40.2,54.4,39.5z"/></g><text x="0" y="85" fill="#000000" font-size="5px" font-weight="bold" font-family="'Helvetica Neue', Helvetica, Arial-Unicode, Arial, Sans-serif">Created by ProSymbols</text><text x="0" y="90" fill="#000000" font-size="5px" font-weight="bold" font-family="'Helvetica Neue', Helvetica, Arial-Unicode, Arial, Sans-serif">from the Noun Project</text></svg>