<svg xmlns="http://www.w3.org/2000/svg" viewBox="0 0 64 80" x="0px" y="0px"><title>student, scholar, colleger</title><g><path d="M55,30.688H40.271c0-.033.01-.064.01-.1V27.034a6.5,6.5,0,0,0-2.96-5.444A8.256,8.256,0,0,0,30.777,7.072c-.035.006-.071.009-.105.016a8.268,8.268,0,0,0-3.993,14.5,6.5,6.5,0,0,0-2.96,5.444V30.59c0,.034.008.065.01.1H9a1.5,1.5,0,0,0,0,3h2.009v21.84a1.5,1.5,0,0,0,3,0V45.6H49.994v9.927a1.5,1.5,0,0,0,3,0V33.688H55a1.5,1.5,0,0,0,0-3ZM29.757,10.5a3.86,3.86,0,0,1,3.116.346,5.255,5.255,0,0,1-1.913,9.587,5.263,5.263,0,0,1-1.2-9.933ZM26.719,30.59V27.034a3.5,3.5,0,0,1,3.5-3.5h1.6a3.5,3.5,0,0,1,3.461,3.5v3.56c0,.034.008.065.01.1H26.709C26.711,30.655,26.719,30.624,26.719,30.59ZM47.99,42.6H14.006V33.688H45.631c1.285.1,2.359.559,2.359,2.382Z"/></g><text x="0" y="79" fill="#000000" font-size="5px" font-weight="bold" font-family="'Helvetica Neue', Helvetica, Arial-Unicode, Arial, Sans-serif">Created by The Icon Z</text><text x="0" y="84" fill="#000000" font-size="5px" font-weight="bold" font-family="'Helvetica Neue', Helvetica, Arial-Unicode, Arial, Sans-serif">from the Noun Project</text></svg>