<svg xmlns="http://www.w3.org/2000/svg" xmlns:xlink="http://www.w3.org/1999/xlink" version="1.1" x="0px" y="0px" viewBox="0 0 210.921 294.605" style="enable-background:new 0 0 210.921 235.684;" xml:space="preserve"><g><circle cx="72.584" cy="24" r="24"/><rect x="31.368" y="128.929" transform="matrix(0.5167 -0.8562 0.8562 0.5167 -90.7237 99.4633)" width="22.743" height="2.325"/><rect x="27.385" y="126.524" transform="matrix(0.5171 -0.8559 0.8559 0.5171 -90.5733 94.8278)" width="22.744" height="2.326"/><path d="M194.844,162.93l-3.48-17.906l-7.283-37.487l-4.064-20.913l-1.398-7.197c0.158,0.194,0.313,0.373,0.473,0.576   c6.718,8.583,14.77,25.152,18.884,56.377c0.469,3.559,3.734,6.063,7.293,5.594c3.558-0.469,6.065-3.734,5.596-7.293   c-4.611-34.938-14.096-54.118-23.239-64.772c-8.429-9.869-16.538-12.013-18.713-12.361c-0.528-0.131-1.477-0.357-2.719-0.612   c-0.2,9.572-6.152,17.256-13.48,17.256c-7.33,0-13.281-7.685-13.48-17.257c-1.243,0.255-2.191,0.481-2.721,0.612   c-2.172,0.348-10.284,2.49-18.718,12.362c-4.343,5.062-8.764,12.056-12.702,21.744l-2.598-1.568   c0.891-2.164,1.819-4.248,2.794-6.236c-0.017-0.045-0.033-0.088-0.05-0.133c0.02,0.041,0.037,0.08,0.056,0.121   c2.913-5.94,6.202-11.088,9.858-15.433c-5.222-8.233-11.405-13.888-17.514-17.49c-3.983-2.367-7.85-3.878-11.334-4.843   c-3.986,2.486-8.688,3.929-13.721,3.929c-5.035,0-9.736-1.442-13.723-3.93c-3.484,0.966-7.35,2.477-11.335,4.845   c-9.503,5.604-19.206,16.145-25.154,33.713c-0.001,0.002-0.001,0.003-0.001,0.004v-0.002c-1.133,3.318-2.139,6.896-3.008,10.735   L0,127.416l15.811,9.553c0,0.048,0.001,0.095,0.002,0.144c0.101,4.355,3.662,7.816,7.998,7.816c0.062,0,0.123-0.001,0.185-0.002   c1.262-0.028,2.444-0.357,3.494-0.901l14.363,8.678l0.324-0.537l3.27,71.154c0,6.83,5.537,12.363,12.363,12.363   c6.828,0,12.365-5.533,12.365-12.363v-78.544c0.797,0.064,1.598,0.109,2.408,0.109c0.81,0,1.61-0.045,2.406-0.109v78.544   c0,6.83,5.537,12.363,12.365,12.363c6.826,0,12.363-5.533,12.363-12.363l3.612-78.588c-0.746,0.189-1.522,0.298-2.32,0.298   c-0.423,0-0.849-0.03-1.265-0.086c-3.788-0.5-6.757-3.195-7.816-6.637l-0.092-0.283c-0.324-1.184-0.424-2.449-0.254-3.741   c0.185-1.404,0.389-2.774,0.592-4.145l2.779,1.679c-0.135,0.942-0.268,1.893-0.396,2.859c-0.472,3.561,2.033,6.825,5.592,7.296   c0.289,0.038,0.576,0.057,0.859,0.057c2.325,0,4.418-1.26,5.567-3.19l2.57,1.553l5.201,3.142l-4.971,25.582   c0,0,7.91,4.101,21.666,6.629v49.9c0,5.523,4.477,10,10,10c5.521,0,10-4.477,10-10v-47.978c0.554,0.008,1.105,0.017,1.668,0.017   s1.113-0.009,1.666-0.017v47.978c0,5.523,4.475,10,10,10c5.52,0,10-4.477,10-10v-49.9c9.113-1.675,15.652-4.036,19.032-5.441   c1.722-0.717,2.634-1.188,2.634-1.188L194.844,162.93z M15.762,133.438l-11.644-7.035l13.635-22.571   c-1.284,8.186-1.998,17.438-2,27.934C15.752,132.316,15.758,132.878,15.762,133.438z M29.973,142.021   c1.184-1.431,1.883-3.273,1.838-5.276c-0.041-1.695-0.059-3.353-0.059-4.98c-0.001-10.356,0.746-19.203,2.008-26.738l24.463,14.774   l-17.388,28.782L29.973,142.021z M63.084,109.746l5.472-40.321c1.298,0.486,2.661,0.74,4.026,0.739h0.002h0.006   c1.363,0,2.726-0.254,4.021-0.74l5.474,40.322l-9.5,12L63.084,109.746z M98.69,77.018h-14.5v-5h14.5V77.018z M101.586,93.039   l2.397,1.448c-3.397,9.026-6.376,20.217-8.549,34.117l-11.233-6.786L101.586,93.039z M126.81,79.397l-1.397,7.197l-0.785,4.04   c-0.168-0.614-0.338-1.224-0.512-1.823c-1.723,3.084-3.463,6.792-5.137,11.229l-2.601-1.571   C119.779,89.593,123.476,83.516,126.81,79.397z M115.323,101.336l22.982,13.881l-17.385,28.784l-13.408-8.1   C109.447,121.433,112.227,110.136,115.323,101.336z M72.584,57.246h3.799l1.9,7.5l-0.289,0.456   c-1.566,1.306-3.484,1.96-5.412,1.962c-1.928-0.002-3.843-0.655-5.408-1.958l-0.291-0.46l1.9-7.5H72.584z M39.93,83.714   c-0.957,2.615-1.708,5.364-2.229,8.222c-0.555,3.044-0.855,6.204-0.855,9.451c0,0.679,0.017,1.353,0.042,2.024l-1.957-1.182   l-0.592-0.358c0.886-4.509,1.958-8.519,3.169-12.061c0.001-0.003,0.002-0.005,0.004-0.008   C38.273,87.594,39.086,85.583,39.93,83.714z M158.857,84.184h14.5v5h-14.5V84.184z"/><rect x="111.452" y="124.345" transform="matrix(0.5165 -0.8563 0.8563 0.5165 -48.0867 165.8504)" width="22.743" height="2.325"/><rect x="107.469" y="121.94" transform="matrix(0.5173 -0.8558 0.8558 0.5173 -47.9891 161.1207)" width="22.744" height="2.326"/><path d="M164.366,47.509c4.523-2.919,7.964-7.524,9.28-13.181c2.691-11.562-4.498-23.117-16.059-25.81   c-11.563-2.691-23.117,4.5-25.811,16.061c-2.115,9.082,1.869,18.157,9.278,22.938c2.023,1.307,4.302,2.295,6.782,2.872   C153.744,51.764,159.645,50.556,164.366,47.509z"/></g><text x="0" y="250.684" fill="#000000" font-size="5px" font-weight="bold" font-family="'Helvetica Neue', Helvetica, Arial-Unicode, Arial, Sans-serif">Created by Gan Khoon Lay</text><text x="0" y="255.684" fill="#000000" font-size="5px" font-weight="bold" font-family="'Helvetica Neue', Helvetica, Arial-Unicode, Arial, Sans-serif">from the Noun Project</text></svg>